# This file uses centimeters as units for non-parametric coordinates.

mtllib s_cube.mtl
g default
v 1.000000 -1.000000 -1.000000
v -1.000000 -1.000000 -1.000000
v 1.000000 0.693497 -1.000000
v 0.653930 0.653930 -1.000000
v -1.000000 0.464830 -1.000000
v 1.000000 0.376096 1.000000
v -0.234904 0.234904 1.000000
v 1.000000 0.461548 0.461549
v -1.000000 0.147428 1.000000
v -1.000000 0.363876 -0.363876
v -0.766453 -0.623044 1.000000
v 1.000000 -0.468327 0.804125
v -1.000000 -1.000000 0.686508
v -1.000000 -0.670702 1.000000
v -0.610923 -1.000000 0.610923
v -1.000000 -0.839400 0.839400
v 1.000000 -0.262577 1.000000
v 0.387554 -0.387554 1.000000
v 1.000000 -1.000000 0.297972
vn 0.000000 0.000000 -1.000000
vn 0.000000 0.000000 -1.000000
vn 0.000000 0.000000 -1.000000
vn 0.000000 -0.000000 1.000000
vn 0.000000 -0.000000 1.000000
vn 0.000000 -0.000000 1.000000
vn 0.000000 -0.000000 1.000000
vn 1.000000 0.000000 0.000000
vn 1.000000 0.000000 0.000000
vn 1.000000 0.000000 0.000000
vn -1.000000 0.000000 0.000000
vn -1.000000 0.000000 0.000000
vn -1.000000 0.000000 0.000000
vn -1.000000 0.000000 0.000000
vn 0.000000 -1.000000 0.000000
vn 0.000000 -1.000000 0.000000
vn 0.000000 -1.000000 0.000000
vn 0.000000 -1.000000 0.000000
vn 0.000000 -1.000000 0.000000
vn 0.000000 -1.000000 0.000000
vn 0.000000 -1.000000 0.000000
vn 0.000000 0.000000 -1.000000
vn 0.000000 0.000000 -1.000000
vn 0.000000 0.000000 -1.000000
vn 0.000000 0.000000 -1.000000
vn 0.000000 0.000000 -1.000000
vn 0.000000 0.000000 -1.000000
vn 1.000000 0.000000 0.000000
vn 1.000000 0.000000 0.000000
vn 1.000000 0.000000 0.000000
vn 1.000000 0.000000 0.000000
vn 0.000000 -0.000000 1.000000
vn 0.000000 -0.000000 1.000000
vn 0.000000 -0.000000 1.000000
vn 0.000000 -0.000000 1.000000
vn 0.000000 -0.000000 1.000000
vn 0.000000 -0.000000 1.000000
vn 0.000000 -0.000000 1.000000
vn -1.000000 0.000000 0.000000
vn -1.000000 0.000000 0.000000
vn -1.000000 0.000000 0.000000
vn -1.000000 0.000000 0.000000
vn -1.000000 0.000000 0.000000
vn -1.000000 0.000000 0.000000
vn -1.000000 0.000000 0.000000
vn 1.000000 0.000000 0.000000
vn 1.000000 0.000000 0.000000
vn 1.000000 0.000000 0.000000
vn 1.000000 0.000000 0.000000
s off
g Mesh
usemtl None
f 4//1 2//2 5//3
s 1
f 17//4 6//5 18//6
f 18//6 6//5 7//7
s off
f 1//8 3//9 8//10
s 2
f 16//11 14//12 10//13
f 14//12 9//14 10//13
s off
f 1//15 19//16 15//17
s 3
f 1//18 15//19 2//20
f 2//20 15//19 13//21
s off
f 3//22 1//23 4//24
f 4//25 1//26 2//27
s 4
f 8//28 6//29 12//30
f 12//30 6//29 17//31
s off
f 18//32 7//33 11//34
s 5
f 7//35 9//36 11//37
f 11//37 9//36 14//38
s 6
f 16//39 10//40 13//41
f 13//41 10//40 2//42
s off
f 2//43 10//44 5//45
s 7
f 1//46 8//47 19//48
f 19//48 8//47 12//49
