# Blender v2.78 (sub 0) OBJ File: ''
# www.blender.org
mtllib red.mtl
o mmGroup0.001
v -1.472147 -1.861127 -0.470389
v -1.472147 -1.861127 -0.507683
v -1.472147 -1.861127 -0.586181
v -1.472147 -1.861127 -1.069657
v 0.027779 -1.861127 -1.557135
v 0.102424 -1.861127 -1.581394
v 0.562172 -1.861127 -1.730812
v 0.868115 -1.861127 -1.309808
v 1.489546 -1.861127 -0.454664
v 1.535697 -1.861127 -0.391155
v 1.819950 -1.861127 0.000002
v 0.914266 -1.861127 1.246301
v 0.892577 -1.861127 1.276150
v 0.846425 -1.861127 1.339659
v 0.562172 -1.861127 1.730815
v 0.066962 -1.861127 1.569871
v -0.937755 -1.861127 1.243338
v -1.012401 -1.861127 1.219079
v -1.472147 -1.861127 1.069660
v 0.562172 1.274436 1.730816
v -1.472147 1.274436 1.069661
v 1.819950 1.274436 0.000002
v -1.472147 1.274437 -1.069657
v 0.562172 1.274437 -1.730811
vn -0.8242 -0.5549 -0.1131
vn -0.9349 -0.2435 0.2581
vn -0.4488 -0.8319 0.3263
vn -0.8162 -0.3431 -0.4649
vn -0.5753 -0.5995 -0.5564
vn -0.3617 -0.8682 -0.3397
vn -0.0603 -0.8458 -0.5301
vn 0.5103 -0.7866 -0.3478
vn 0.3189 -0.9267 -0.1991
vn 0.1578 -0.9754 -0.1541
vn 0.2940 -0.9086 -0.2966
vn 0.4057 -0.8717 0.2749
vn 0.1803 -0.9794 0.0904
vn 0.7867 -0.6166 0.0310
vn 0.6244 -0.3033 0.7198
vn -0.0857 -0.7029 0.7061
vn 0.1926 -0.6754 0.7118
vn -0.0499 -0.2613 0.9640
vn -0.8975 -0.4234 -0.1230
vn 0.1360 0.6787 0.7217
vn -0.8730 0.2679 0.4077
vn 0.8481 0.3998 -0.3478
vn -0.6048 0.5559 -0.5703
vn 0.3555 0.5559 -0.7514
usemtl None.001
s 1
f 1//1 2//2 3//3 4//4 5//5 6//6 7//7 8//8 9//9 10//10 11//11 12//12 13//13 14//14 15//15 16//16 17//17 18//18 19//19
f 16//16 15//15 20//20
f 17//17 16//16 20//20
f 14//14 20//20 15//15
f 18//18 21//21 19//19
f 13//13 12//12 22//22
f 21//21 20//20 23//23
f 1//1 19//19 21//21
f 20//20 22//22 24//24
f 12//12 11//11 22//22
f 23//23 20//20 24//24
f 2//2 1//1 21//21
f 10//10 22//22 11//11
f 3//3 23//23 4//4
f 5//5 23//23 24//24 6//6
f 9//9 8//8 24//24
f 4//4 23//23 5//5
f 6//6 24//24 7//7
f 8//8 7//7 24//24
f 20//20 14//14 13//13 22//22
f 21//21 18//18 17//17 20//20
f 22//22 10//10 9//9 24//24
f 23//23 3//3 2//2 21//21
