#  
#  Wavefront OBJ generated by GLM library
#  
#  GLM library
#  Nate Robins
#  ndr@pobox.com
#  http://www.pobox.com/~ndr
#  

# 48 vertices
v 1.000000 -1.000000 -1.000000
v 1.000000 -1.000000 1.000000
v -1.000000 -1.000000 1.000000
v -1.000000 -1.000000 -1.000000
v 1.000000 1.000000 -1.000000
v 1.000000 1.000000 1.000000
v -1.000000 1.000000 1.000000
v -1.000000 1.000000 -1.000000
v 0.971132 -0.971132 -0.971132
v 0.971132 -0.971132 0.971132
v -0.971132 -0.971132 0.971132
v -0.971132 -0.971132 -0.971132
v 0.971132 0.971132 -0.971132
v 0.971132 0.971132 0.971132
v -0.971132 0.971132 0.971132
v -0.971132 0.971132 -0.971132
v 1.000000 0.500000 1.000000
v -0.500000 0.500000 1.000000
v -1.000000 0.500000 1.000000
v 0.971132 0.500000 0.971132
v -0.500000 0.500000 0.971132
v -0.971132 0.500000 0.971132
v 1.000000 -0.500000 1.000000
v 0.500000 -0.500000 1.000000
v 0.333333 -0.500000 1.000000
v -1.000000 -0.500000 1.000000
v 0.971132 -0.500000 0.971132
v 0.500000 -0.500000 0.971132
v 0.349119 -0.500000 0.971132
v -0.971132 -0.500000 0.971132
v 0.000000 0.000000 0.000000
v 0.000000 0.000000 0.000000
v 0.500000 -0.166667 1.000000
v 0.500000 0.500000 1.000000
v 0.000000 0.000000 0.000000
v 0.000000 0.000000 0.000000
v 0.500000 -0.179748 0.971132
v 0.500000 0.500000 0.971132
v -0.500000 0.125000 1.000000
v -0.500000 0.166667 1.000000
v 0.000000 0.000000 0.000000
v 0.000000 0.000000 0.000000
v -0.500000 -0.500000 1.000000
v -0.500000 0.143150 0.971132
v -0.500000 0.179749 0.971132
v 0.000000 0.000000 0.000000
v 0.000000 0.000000 0.000000
v -0.500000 -0.500000 0.971132

# 72 normals
vn 0.000000 -1.000000 0.000000
vn 0.000000 -1.000000 0.000000
vn 0.000000 1.000000 0.000000
vn 0.000000 1.000000 -0.000000
vn 1.000000 0.000000 0.000000
vn 1.000000 0.000000 0.000000
vn 0.000000 -0.000000 1.000000
vn 0.000000 0.000000 1.000000

# 1 groups
# 72 faces (triangles)

f 1//1 2//1 3//1
f 1//2 3//2 4//2
f 5//3 8//3 7//3
f 5//4 7//4 6//4
f 1//5 5//5 6//5
f 1//6 23//6 2//6
f 2//7 23//7 24//7
f 7//8 19//8 18//8
f 8//9 19//9 7//9
f 3//10 8//10 4//10
f 5//11 1//11 4//11
f 5//12 4//12 8//12
f 9//12 10//12 11//12
f 9//12 11//12 12//12
f 13//12 16//12 15//12
f 13//12 15//12 14//12
f 9//12 13//12 14//12
f 9//12 27//12 10//12
f 10//12 27//12 28//12
f 15//12 22//12 21//12
f 16//12 22//12 15//12
f 11//12 16//12 12//12
f 13//12 9//12 12//12
f 13//12 12//12 16//12
f 7//25 34//25 17//25
f 17//26 6//26 7//26
f 1//27 6//27 17//27
f 2//28 24//28 25//28
f 25//29 39//29 43//29
f 8//30 26//30 19//30
f 15//31 38//31 20//31
f 20//32 14//32 15//32
f 9//33 14//33 20//33
f 10//34 28//34 29//34
f 29//35 44//35 48//35
f 16//36 30//36 22//36
f 24//37 33//37 18//37
f 18//38 33//38 34//38
f 1//39 17//39 23//39
f 19//40 39//40 40//40
f 18//41 40//41 24//41
f 2//42 43//42 26//42
f 26//43 3//43 2//43
f 8//44 3//44 26//44
f 28//45 37//45 21//45
f 21//46 37//46 38//46
f 9//47 20//47 27//47
f 22//48 44//48 45//48
f 21//49 45//49 28//49
f 10//50 48//50 30//50
f 30//51 11//51 10//51
f 16//52 11//52 30//52
f 24//53 23//53 33//53
f 34//54 33//54 17//54
f 33//55 23//55 17//55
f 7//56 18//56 34//56
f 28//57 27//57 37//57
f 38//58 37//58 20//58
f 37//59 27//59 20//59
f 15//60 21//60 38//60
f 40//61 39//61 24//61
f 39//62 25//62 24//62
f 18//63 19//63 40//63
f 43//64 39//64 26//64
f 39//65 19//65 26//65
f 2//66 25//66 43//66
f 45//67 44//67 28//67
f 44//68 29//68 28//68
f 21//69 22//69 45//69
f 48//70 44//70 30//70
f 44//71 22//71 30//71
f 10//72 29//72 48//72
